<svg xmlns="http://www.w3.org/2000/svg" viewBox="0 0 400 400"><defs><style>.cls-1{fill:#f4c59a;}</style></defs><g id="Layer_2" data-name="Layer 2"><g id="Layer_1-2" data-name="Layer 1"><path class="cls-1" d="M200,1A198.93,198.93,0,0,1,340.71,340.71,199,199,0,1,1,122.54,16.64,197.67,197.67,0,0,1,200,1m0-1C89.54,0,0,89.54,0,200S89.54,400,200,400s200-89.54,200-200S310.46,0,200,0Z"/><path class="cls-1" d="M200,51A149,149,0,1,1,94.64,94.64,148,148,0,0,1,200,51m0-1A150,150,0,1,0,350,200,150,150,0,0,0,200,50Z"/><path class="cls-1" d="M200,101a99,99,0,1,1-99,99,99.11,99.11,0,0,1,99-99m0-1A100,100,0,1,0,300,200,100,100,0,0,0,200,100Z"/><path class="cls-1" d="M200,151a49,49,0,1,1-49,49,49.05,49.05,0,0,1,49-49m0-1a50,50,0,1,0,50,50,50,50,0,0,0-50-50Z"/></g></g></svg>