<svg xmlns="http://www.w3.org/2000/svg" viewBox="0 50 399.69 192.57"><defs><style>.cls-1{fill:#f4c59a;}.cls-2{fill:none;stroke:#f4c59a;stroke-miterlimit:10;}</style></defs><g id="Layer_2" data-name="Layer 2"><g id="Layer_1-2" data-name="Layer 1"><path class="cls-1" d="M398.65,1.07a197.92,197.92,0,0,1-60.58,134.65,197.94,197.94,0,0,1-138.22,55.85A198,198,0,0,1,61.62,135.72,197.92,197.92,0,0,1,1,1.07H398.65m1-1H0c4,107,91.9,192.5,199.85,192.5S395.75,107.05,399.69.07Z"/><path class="cls-1" d="M348.6,1.07a148.23,148.23,0,0,1-45.88,99.29,148.31,148.31,0,0,1-102.87,41.21A148.32,148.32,0,0,1,97,100.36,148.23,148.23,0,0,1,51.09,1.07H348.6m1.06-1H50a150,150,0,0,0,149.82,142.5A150,150,0,0,0,349.66.07Z"/><path class="cls-1" d="M298.48,1.07A98.54,98.54,0,0,1,267.35,65a98.65,98.65,0,0,1-67.5,26.58A98.67,98.67,0,0,1,132.34,65,98.64,98.64,0,0,1,101.21,1.07H298.48m1.09-1H100.13a100,100,0,0,0,99.72,92.5A100,100,0,0,0,299.57.07Z"/><path class="cls-2" d="M150.41.07a50,50,0,0,0,49.44,42.5A50,50,0,0,0,249.28.07"/></g></g></svg>