<svg xmlns="http://www.w3.org/2000/svg" viewBox="0 0 100 66.67"><defs><style>.cls-1{fill:#565656;}</style></defs><g id="Layer_2" data-name="Layer 2"><g id="Layer_1-2" data-name="Layer 1"><g id="email"><g id="Group_1488" data-name="Group 1488"><g id="Group_1487" data-name="Group 1487"><path id="Path_3159" data-name="Path 3159" class="cls-1" d="M89.58,0H10.42A10.44,10.44,0,0,0,0,10.42V56.25A10.44,10.44,0,0,0,10.42,66.67H89.58A10.44,10.44,0,0,0,100,56.25V10.42A10.44,10.44,0,0,0,89.58,0Zm6.25,56.25a6.25,6.25,0,0,1-6.25,6.25H10.42a6.25,6.25,0,0,1-6.25-6.25V10.42a6.25,6.25,0,0,1,6.25-6.25H89.58a6.25,6.25,0,0,1,6.25,6.25Z"/></g></g><g id="Group_1490" data-name="Group 1490"><g id="Group_1489" data-name="Group 1489"><path id="Path_3160" data-name="Path 3160" class="cls-1" d="M91.3,9.24a2.09,2.09,0,0,0-2.9-.54h0L54.23,32.08a7.45,7.45,0,0,1-8.47,0L11.59,8.7a2.08,2.08,0,0,0-2.4,3.4l.05,0L43.41,35.52a11.63,11.63,0,0,0,13.18,0L90.76,12.13A2.08,2.08,0,0,0,91.3,9.24Z"/></g></g><g id="Group_1492" data-name="Group 1492"><g id="Group_1491" data-name="Group 1491"><path id="Path_3161" data-name="Path 3161" class="cls-1" d="M37,34.08a2.1,2.1,0,0,0-2.94-.27l-25,20.84a2.08,2.08,0,0,0-.14,2.94,2.1,2.1,0,0,0,2.81.26L36.75,37A2.09,2.09,0,0,0,37,34.08Z"/></g></g><g id="Group_1494" data-name="Group 1494"><g id="Group_1493" data-name="Group 1493"><path id="Path_3162" data-name="Path 3162" class="cls-1" d="M90.92,54.65l-25-20.84a2.09,2.09,0,0,0-2.81,3.09l.14.11,25,20.84a2.09,2.09,0,0,0,2.67-3.2Z"/></g></g></g></g></g></svg>