<svg xmlns="http://www.w3.org/2000/svg" viewBox="0 0 53.4 89"><defs><style>.cls-1{fill:#565656;}</style></defs><g id="Layer_2" data-name="Layer 2"><g id="Layer_1-2" data-name="Layer 1"><g id="Group_1481" data-name="Group 1481"><path id="Path_3158" data-name="Path 3158" class="cls-1" d="M44.5,0H8.9A8.92,8.92,0,0,0,0,8.9V80.1A8.92,8.92,0,0,0,8.9,89H44.5a8.92,8.92,0,0,0,8.9-8.9V8.9A8.92,8.92,0,0,0,44.5,0ZM49,80.1a4.45,4.45,0,0,1-4.45,4.45H8.9A4.45,4.45,0,0,1,4.45,80.1V8.9A4.45,4.45,0,0,1,8.9,4.45H44.5A4.45,4.45,0,0,1,49,8.9Z"/></g><g id="Group_1483" data-name="Group 1483"><circle id="Ellipse_302" data-name="Ellipse 302" class="cls-1" cx="26.6" cy="76.1" r="4.45"/></g><g id="Group_1480" data-name="Group 1480"><g id="Group_1479" data-name="Group 1479"><path id="Path_3157" data-name="Path 3157" class="cls-1" d="M35.05,8.87h-8.9a2.23,2.23,0,1,0,0,4.45h8.9a2.23,2.23,0,0,0,0-4.45Z"/></g></g><g id="Group_1485" data-name="Group 1485"><circle id="Ellipse_303" data-name="Ellipse 303" class="cls-1" cx="19.6" cy="11.1" r="2.22"/></g></g></g></svg>