<svg xmlns="http://www.w3.org/2000/svg" xmlns:xlink="http://www.w3.org/1999/xlink" viewBox="0 0 92.51 118.18"><defs><style>.cls-1,.cls-3{fill:#fff;}.cls-2,.cls-3{isolation:isolate;}.cls-3{font-size:6px;font-family:Helvetica;}.cls-4{letter-spacing:-0.05em;}.cls-5{fill:url(#linear-gradient);}</style><linearGradient id="linear-gradient" x1="-189.82" y1="350.4" x2="-189.82" y2="351.4" gradientTransform="matrix(81.23, 0, 0, -100.73, 15470.37, 35394.7)" gradientUnits="userSpaceOnUse"><stop offset="0" stop-color="#7f6142"/><stop offset="0.06" stop-color="#997756"/><stop offset="0.16" stop-color="#b7916c"/><stop offset="0.26" stop-color="#d0a67f"/><stop offset="0.37" stop-color="#e3b68d"/><stop offset="0.5" stop-color="#f0c197"/><stop offset="0.67" stop-color="#f8c89d"/><stop offset="1" stop-color="#faca9f"/></linearGradient></defs><g id="Layer_2" data-name="Layer 2"><g id="Layer_1-2" data-name="Layer 1"><g id="DARLENA_LOGO_RGB_DARK-01" data-name="DARLENA LOGO RGB DARK-01"><path id="Path_3087" data-name="Path 3087" class="cls-1" d="M54.51,8.28c-1.85,4-3.74,8-6.64,11.31a31.06,31.06,0,0,1-10.22,7.24C30,30.46,21.53,31.94,13.41,34.2c-3.51,1-7.23,2-10.07,4.43a9.45,9.45,0,0,0-3,9.67c1,4,3.86,6.92,7.05,9.27a113.08,113.08,0,0,0,11.9,7.6c3.57,2,7.22,3.87,10.83,5.79A30.72,30.72,0,0,0,39,73.59c.73.14,1-1,.31-1.13a31,31,0,0,1-8-2.23C28.59,68.91,26,67.37,23.37,66a125.31,125.31,0,0,1-11.91-7.08C8,56.63,4.17,54.17,2.29,50.26S1,41.87,4.56,39.15C7.5,36.93,11.29,36,14.79,35c7.71-2.08,15.65-3.61,23-7a32.78,32.78,0,0,0,10.7-7.37c3.12-3.43,5.13-7.67,7.08-11.83.32-.68-.71-1.28-1-.6Z"/><path id="Path_3088" data-name="Path 3088" class="cls-1" d="M64.22,94c0,.1-.09.23-.29.38a3.83,3.83,0,0,1-1.22.85c-5.94,1.8-11.91,3.53-17.87,5.28-.08,0-.18,0-.56-.28.57-.56,1.06-1.42,1.74-1.62,5.74-1.68,11.52-3.24,17.29-4.82C63.67,93.69,64.24,93.73,64.22,94Z"/><path id="Path_3089" data-name="Path 3089" class="cls-1" d="M24.34,84.49c-.47.36-.8,2-.93,2.53-.21.9,0,2.5,1.26,1.26-.39.38-.33,1.54-1,1.63C21.61,90.2,23.67,85,24.34,84.49Z"/><path id="Path_3090" data-name="Path 3090" class="cls-1" d="M75.42,77.32c-.75.58-1.29,3.19-1.49,4.07-.26,1.1.11,3.68,1.72,2.33a2.59,2.59,0,0,1-.45,1.62c-.66,1-1.81.92-2.19-.17a5.62,5.62,0,0,1,.18-2.82C73.54,80.89,74.15,78.28,75.42,77.32Z"/><path id="Path_3091" data-name="Path 3091" class="cls-1" d="M88.2,91.15c-.75.57-1.28,3.19-1.49,4.06-.26,1.1.11,3.68,1.73,2.33A2.66,2.66,0,0,1,88,99.16c-.66,1-1.82.92-2.19-.17A5.41,5.41,0,0,1,86,96.17C86.33,94.73,86.94,92.11,88.2,91.15Z"/><path id="Path_3092" data-name="Path 3092" class="cls-1" d="M56.47,86.55c-.64.5-1.1,2.76-1.28,3.52-.24,1,.1,3.19,1.49,2a2.32,2.32,0,0,1-.39,1.42,1,1,0,0,1-1.9-.16,4.81,4.81,0,0,1,.16-2.44C54.85,89.64,55.38,87.38,56.47,86.55Z"/><path id="Path_3093" data-name="Path 3093" class="cls-1" d="M72.24,53.33c.64-.52,1.21-1.32,2-1.54,5.61-1.65,11.26-3.16,16.89-4.7.38-.1,1.6-.29.89.44-1,1.09-2.42,1.3-3.84,1.72l-5,1.5-10.29,3a.57.57,0,0,1-.26,0Z"/><path id="Path_3094" data-name="Path 3094" class="cls-1" d="M81.65,42.36c1.13-4.14-1-6.69-3.49-9.07L79,31.86C82.47,33.89,83.93,39.16,81.65,42.36Z"/><path id="Path_3095" data-name="Path 3095" class="cls-1" d="M25,53c1.49,1.09,2.83,2,4.08,3.05a1.38,1.38,0,0,1,.12,1.29c-.6,1-1.36,1.9-2.15,3L22.39,56.8Z"/><path id="Path_3096" data-name="Path 3096" class="cls-1" d="M45,37.77c.61,1.73,2,3.94,1.07,5.72-.23.5-.68,1.57-1.31,1.64s-1.55-.77-2.07-1c.22-.12.11-.1.08,0-.7,1.56-2.5,2.37-3.4.4-.2-.44-.65-5.59.1-5.41l.45.1a27.11,27.11,0,0,0,0,3c.08.76.14,1.73,1.28,1.71.82,0,1.51-1.11,1.38-2.15-.08-.66-.32-1.31-.37-2a6.17,6.17,0,0,1,.24-1.35l.45,0c.2,1,.38,2,.6,3,.29,1.28.43,1.85,1.84,1.88.44,0-.7-3.52-.76-3.8S44.78,38.6,45,37.77Z"/><path id="Path_3097" data-name="Path 3097" class="cls-1" d="M40.27,32.42l-4.7-.27c.72-2,1.13-2.29,3-2.27a20.53,20.53,0,0,1,2.82.17c1.51.22,1.57.52.83,1.8-1.4,2.42-3.65,3.29-6.33,3.5l4.44-2.43Z"/><path id="Path_3098" data-name="Path 3098" class="cls-1" d="M14.06,20.12l0,.05c0,.06-1.25-.42-1.64-.07S12,21.51,11.84,22a23.71,23.71,0,0,1-.7,3.55c-.78-.58-1.14-4.78-2.9-3.9-.8.35-1.39-.85-1.25-1.44.76-3.1,4.35,1.62,4.1,3.11a28.24,28.24,0,0,1,.79-4.16,1.82,1.82,0,0,1,1-1.28,1.22,1.22,0,0,1,1.47.89l0,.11a1.5,1.5,0,0,1-.29,1.21Z"/><path id="Path_3099" data-name="Path 3099" class="cls-1" d="M68.87,20.34l-.07.09c-.07.07-1.84-.64-2.42-.11s-.65,2.09-.8,2.86a35.16,35.16,0,0,1-1.07,5.27c-1.16-.87-1.68-7.1-4.3-5.8-1.19.53-2.06-1.26-1.85-2.13,1.13-4.6,6.45,2.4,6.09,4.62A41.6,41.6,0,0,1,65.63,19a2.71,2.71,0,0,1,1.44-1.9,1.79,1.79,0,0,1,2.17,1.31,1.24,1.24,0,0,1,0,.16,2.2,2.2,0,0,1-.42,1.8Z"/><path id="Path_3100" data-name="Path 3100" class="cls-1" d="M89.56,57.68l-.06.07c0,.06-1.54-.53-2-.09s-.54,1.74-.66,2.39a28.7,28.7,0,0,1-.89,4.39c-1-.72-1.41-5.92-3.58-4.83-1,.44-1.73-1-1.55-1.78,1-3.83,5.38,2,5.08,3.86a36.09,36.09,0,0,1,1-5.16A2.3,2.3,0,0,1,88.05,55a1.5,1.5,0,0,1,1.82,1.1l0,.13A1.82,1.82,0,0,1,89.56,57.68Z"/><path id="Path_3101" data-name="Path 3101" class="cls-1" d="M34.47,78.76a1.2,1.2,0,0,1,1.05-.41,6.92,6.92,0,0,1,1.63.7c2.4,1.25,2.79.71,1.19,3.77-.13.23-.24.49-.44.86,1.1.56,2.18,1.13,3.28,1.65a1,1,0,0,1,.71,1.22,1,1,0,0,1-.15.32c-.43.86-.87,1.7-1.38,2.69l-4.57-2.28,1.48-3.5-3.91-2"/><g id="DARLENA" class="cls-2"><text class="cls-3" transform="translate(14.35 115.3)">DARLEN<tspan class="cls-4" x="24.34" y="0">A</tspan></text></g><path id="Path_3102" data-name="Path 3102" class="cls-1" d="M12.09,106.37l9.58-.06,9.59,0,19.17,0,19.17,0,9.58,0,9.58.06-9.58.06-9.58,0-19.17,0-19.17,0-9.59,0Z"/><path id="Path_3103" data-name="Path 3103" class="cls-5" d="M63.66,80.93c1.08,1.71.54,3.5-.21,5.39-3.07-3.22-5.38-3.72-9.2-1.41a42.46,42.46,0,0,0-7,5.52c-2.26,2.13-4.14,4.66-6.36,6.82a14.72,14.72,0,0,1-4.42,3.12c-2.61,1.08-5.24-.39-6.54-3.25A9.21,9.21,0,0,1,29.77,90c1.38-3.81,3.08-7.52,4.7-11.24a1.21,1.21,0,0,1,1.05-.42,7,7,0,0,1,1.63.71c2.4,1.25,2.79.71,1.19,3.76-.13.24-.24.49-.44.87,1.1.55,2.18,1.12,3.28,1.64a1,1,0,0,1,.71,1.22,1,1,0,0,1-.15.33c-.43.86-.87,1.7-1.38,2.68l-4.57-2.27,1.48-3.5-3.91-2c-1,3.41-2,6.64-3,9.88a2.48,2.48,0,0,0-.06.54c-.11,1.7,0,3.37,1.55,4.42s3.33.52,4.77-.43a28.86,28.86,0,0,0,4-3.34c3.36-3.29,6.58-6.74,10-10A17.5,17.5,0,0,1,55,80.15a13.38,13.38,0,0,1,3.66-1.07C60.64,78.77,62.52,79.12,63.66,80.93ZM31,71.6c-.53,3.05-2.08,5.27-5.24,5.94s-6.22-1.35-7.85-3.69c-2.38-3.42-2.21-7.26-2.5-11.32-.56-7.7-.94-15.42-1.41-23.13-.09-1.57-.22-3.14-.35-4.9l-1.88,1.87-.51-.28c.78-3.32,1.78-7.35,2.65-11a.42.42,0,0,1,.5-.3.43.43,0,0,1,.3.31l1.63,9.21c.29,4.33.5,6.82.79,11.15.51,7.6-.15,15.11.44,22.7.24,3,1.54,4.13,4.54,4.47A8.84,8.84,0,0,0,29,69.84a14.58,14.58,0,0,0,2.46-3.13c.17-.27,1.49-2.91,1.49-2q0,.9,0,1.8a3.54,3.54,0,0,0,2.07,3.85,4.34,4.34,0,0,0,4.74-.15,3.1,3.1,0,0,0,1.11-3.53c-.65-3-1.34-6-2.12-9a7.91,7.91,0,0,1,1.09-6.33,21,21,0,0,1,1.21,3c.79,3.08,1.42,6.19,2.18,9.28a25.57,25.57,0,0,0,1.26,4.19c1.08,2.55,3.09,3.45,5.78,2.8,2.93-.71,4.08-2,3.93-5C53.85,58,53.3,29,52.84,21.4c-.26-4.33-.49-8.66-.75-13a12.35,12.35,0,0,0-.28-2.09C51.24,3.94,51.5,2.55,53.22,0l4.23,11.37L57,11.7l-2.09-1.6c.1,1.75.17,3.33.28,4.9.52,7.7,1.13,36.81,1.56,44.53A22.14,22.14,0,0,1,54.6,71.32c-1.31,2.52-3,4.67-6.24,4.41s-5-2.26-6-5.22a3.78,3.78,0,0,0-.27-.53c-1.2,3.06-1.91,6.55-6.35,5.93-2.9-.41-3.94-1.4-4.69-4.5a1.07,1.07,0,0,0-.07.19ZM54.3,11l-.12-2.8c0-1.14-.5-2.05-1-2s-.4.94-.36,2.09l.13,2.8c.06,1.13.06,2.07.55,2s.84-1,.79-2.1ZM88.07,72.87c-1-.5-2-.9-3-1.45-2.36-1.38-4.7-2.82-7-4.25a4.77,4.77,0,0,1-.72-.77L79.77,66l0-.49L73,62.19A22,22,0,0,0,73,66.33c.12.62,1,1.07,1.56,1.61l.17.21a24,24,0,0,0,9.3,7.31A57,57,0,0,1,90,78.67c1.82,1.15,1.85,2,.06,3.17q-7.45,4.92-15,9.62a14.6,14.6,0,0,1-3.54,1.46c-3,.87-5.19-.72-4.91-3.79a31.89,31.89,0,0,1,1.66-8A30,30,0,0,0,70,68.31c-.64-8.72-1.23-17.45-1.84-26.17,0-.42,0-.83,0-1.41L70,42.24l.47-.27L66.73,31.84H66.2a20.32,20.32,0,0,0-1.1,4.29,52,52,0,0,0,.58,5.28c.74,11.06,1.48,22.11,2.15,33.16a20.62,20.62,0,0,1-1.08,8.78,20.75,20.75,0,0,0-1.2,10.14c.45,3.34,3,4.89,6.17,3.85a8,8,0,0,0,1.88-.81C78.92,93.05,84.38,89.76,89.47,86c4.69-3.48,3.75-10.48-1.41-13.1Z"/><path id="Path_3104" data-name="Path 3104" class="cls-1" d="M43.79,91.94a1.22,1.22,0,0,1,1.06-.41,6.33,6.33,0,0,1,1.62.71c2.4,1.25,2.79.7,1.19,3.76-.12.23-.23.49-.43.86,1.1.56,2.18,1.13,3.28,1.65a1,1,0,0,1,.71,1.22.86.86,0,0,1-.15.32c-.43.86-.88,1.7-1.38,2.69l-4.57-2.28L46.6,97l-3.92-2"/><path id="Path_3105" data-name="Path 3105" class="cls-1" d="M54.51,8.28c-.3.65-.6,1.3-.84,2a2.78,2.78,0,0,0-.21,1,.71.71,0,0,0,.71.71l.18,0a1.49,1.49,0,0,0,.67-.47A8,8,0,0,0,56.17,10c.29-.47.71-1.59-.28-1.61a1.79,1.79,0,0,0-1,.53c-.55.5-1.08,1-1.58,1.57s.31,1.38.83.83S55,10.41,55.42,10l.4-.35.1-.08c-.12.1-.06,0,0,0A.94.94,0,0,0,56,9.5c.09-.07.1,0,0,0h-.24a.56.56,0,0,1-.39-.5c0,.1,0-.2,0-.06a.16.16,0,0,1,0,.09s.07-.14,0,0l-.15.28a6,6,0,0,1-.41.62l-.11.15c-.1.14,0,0,0,.06l-.25.3a2.61,2.61,0,0,1-.22.24l-.1.1c-.1.1,0,0,0,0s-.21.06,0,0a.5.5,0,0,1,.36,0,.66.66,0,0,1,.19.18c-.05-.06.08.17,0,.08s0,.18,0,.1v-.08s0,.12,0,0a3.63,3.63,0,0,1,.15-.51c.22-.59.47-1.16.74-1.72s-.7-1.28-1-.59Z"/></g></g></g></svg>