<svg xmlns="http://www.w3.org/2000/svg" viewBox="110 110 200 200"><defs><style>.cls-1{fill:#f4c59a;}</style></defs><g id="Layer_2" data-name="Layer 2"><g id="Layer_1-2" data-name="Layer 1"><path class="cls-1" d="M100,1A99,99,0,1,1,1,100,99.11,99.11,0,0,1,100,1m0-1A100,100,0,1,0,200,100,100,100,0,0,0,100,0Z"/><path class="cls-1" d="M100,26a74,74,0,1,1-74,74,74.09,74.09,0,0,1,74-74m0-1a75,75,0,1,0,75,75,75,75,0,0,0-75-75Z"/><path class="cls-1" d="M100,51a49,49,0,1,1-49,49,49.05,49.05,0,0,1,49-49m0-1a50,50,0,1,0,50,50,50,50,0,0,0-50-50Z"/><path class="cls-1" d="M100,76a24,24,0,1,1-24,24,24,24,0,0,1,24-24m0-1a25,25,0,1,0,25,25,25,25,0,0,0-25-25Z"/></g></g></svg>